<svg width="324" height="102" viewBox="0 0 324 102" fill="none" xmlns="http://www.w3.org/2000/svg">
<path d="M16.5652 92.2487C16.4001 92.5108 16.2104 92.6665 15.9962 92.716C15.8392 92.7523 15.686 92.7242 15.5368 92.6317C15.3876 92.5392 15.2655 92.3845 15.1702 92.1676C15.0652 91.9082 14.9767 91.6225 14.9047 91.3106C14.8196 90.9421 14.7823 90.5849 14.7927 90.239C14.8444 89.4208 14.9232 88.4918 15.0291 87.452C15.1427 86.3806 15.2192 85.5716 15.2584 85.025L15.3071 84.4539L16.0116 80.3718C16.0425 80.2452 16.0847 80.0861 16.1383 79.8946C16.1918 79.7031 16.2424 79.4823 16.29 79.2325L16.6733 77.3746C16.7408 77.0156 16.8514 76.4525 17.0052 75.6854C17.159 74.9183 17.3039 74.2428 17.4398 73.6589C18.0543 70.9787 18.5399 68.9778 18.8966 67.6562C19.8639 64.0285 20.7001 61.1031 21.4051 58.8798C21.915 57.1794 22.7467 54.6581 23.9003 51.3159L24.2791 50.2206C24.4522 49.7327 24.6264 49.2819 24.8016 48.8682C24.9096 48.6193 25.0573 48.2492 25.2447 47.758C25.2777 47.7056 25.2863 47.6289 25.2705 47.5281C25.2548 47.4272 25.2459 47.3396 25.2438 47.2655L23.2518 47.7254L22.6043 47.8524C22.0266 47.956 21.5878 48.0423 21.2879 48.1116C21.1737 48.1379 21.0433 48.1755 20.8966 48.2243C20.7499 48.2731 20.6425 48.3128 20.5744 48.3435C20.4777 48.3807 20.3561 48.4238 20.2094 48.4725C20.0627 48.5213 19.8823 48.5705 19.6681 48.6199L12.8569 50.1924L11.1433 50.588C9.98671 50.855 9.11894 51.0703 8.54003 51.2338C7.53928 51.5246 6.42698 51.8859 5.20312 52.3178L3.88318 52.7569C3.82606 52.7701 3.70275 52.806 3.51325 52.8647C3.32375 52.9234 3.15538 52.9921 3.00812 53.0709C2.91471 53.1223 2.76582 53.194 2.56145 53.286C2.35708 53.378 2.19383 53.5015 2.07172 53.6566C1.9496 53.8117 1.87352 54.0197 1.84348 54.2804C1.8069 54.5128 1.67437 54.6554 1.4459 54.7082C1.31739 54.7378 1.17355 54.7337 1.0144 54.6958C0.855238 54.6579 0.710954 54.5867 0.581543 54.4822C0.396203 54.3309 0.285534 54.1772 0.249535 54.0213C0.200444 53.8087 0.240896 53.5604 0.370892 53.2766C0.511894 52.9753 0.699455 52.7453 0.933575 52.5868C1.1677 52.4282 1.47098 52.2761 1.84343 52.1303C3.89579 51.3131 5.66181 50.6889 7.14151 50.2577C8.25322 49.9264 9.94101 49.4844 12.2049 48.9319C13.0616 48.7341 13.7026 48.5787 14.1277 48.4656L15.1986 48.2184L19.6373 47.216L22.6525 46.4975C23.3203 46.3284 24.3254 46.0889 25.6677 45.779C25.8247 45.7427 25.9459 45.6812 26.0311 45.5943C26.1163 45.5074 26.1926 45.3816 26.2598 45.2168C26.468 44.7506 26.7902 44.0939 27.2263 43.2467C27.3441 43.0403 27.5014 42.8099 27.6984 42.5554C27.8986 42.315 28.0915 42.1734 28.2771 42.1306C28.4199 42.0976 28.556 42.1334 28.6854 42.2379C28.8883 42.4001 29.0241 42.63 29.0929 42.9277C29.1387 43.1262 29.1384 43.3204 29.092 43.5102C29.0456 43.7001 28.9662 43.9424 28.8537 44.2372L28.6668 44.7954C28.7985 44.78 28.9542 44.7701 29.1337 44.766C29.3133 44.7619 29.453 44.7483 29.553 44.7252L36.6726 42.9248L42.5481 41.5011C43.7618 41.2209 44.6702 41.0186 45.2732 40.8944C46.3364 40.6788 47.9917 40.3563 50.2389 39.9271L51.4482 39.6927C52.3478 39.485 53.154 39.3288 53.8667 39.2239C54.4016 39.1303 55.1605 39.0298 56.1434 38.9223L57.2389 38.7814C57.4168 38.7702 57.5584 38.7972 57.6637 38.8625C57.769 38.9277 57.8479 39.0738 57.9002 39.3006C57.9886 39.6833 57.868 39.9426 57.5384 40.0784C57.456 40.1124 57.3541 40.1434 57.2327 40.1714C57.1113 40.1994 57.0094 40.2304 56.927 40.2644L54.9301 40.703C54.4875 40.8052 54.1536 40.8897 53.9284 40.9567C53.7032 41.0236 53.4543 41.1184 53.1818 41.241C52.9093 41.3636 52.7176 41.4452 52.6066 41.4858L52.2737 41.6074C52.1595 41.6338 52.064 41.6111 51.9873 41.5392C51.9105 41.4673 51.7702 41.2832 51.5664 40.9868C50.1397 41.2565 48.4339 41.6204 46.4491 42.0787C44.3786 42.5567 41.92 43.1616 39.0733 43.8935C36.2267 44.6254 33.3638 45.3684 30.4847 46.1227L26.9751 47.0449C26.9829 47.0133 26.5849 48.0906 25.7811 50.277C25.0514 52.1327 24.5597 53.4556 24.306 54.2458C23.5923 56.3666 22.8322 58.7743 22.0254 61.469C21.0399 64.7574 20.3068 67.4127 19.8261 69.4349C19.3047 71.5412 18.5862 74.7157 17.6706 78.9585C17.3699 80.327 17.1065 81.6942 16.8804 83.0604C16.467 85.6344 16.3733 87.3134 16.5994 88.0974C16.5733 87.984 16.6885 88.353 16.9453 89.2046C17.0569 89.4924 17.1355 89.7355 17.1814 89.9339C17.2534 90.2458 17.2471 90.5608 17.1626 90.8789C17.0782 91.1971 16.879 91.6537 16.5652 92.2487ZM32.1892 77.9359C32.0497 77.983 31.8372 78.0396 31.5516 78.1055C30.0951 78.4418 28.7634 78.3087 27.5564 77.7064C27.0462 77.4509 26.624 77.1042 26.2898 76.6663C25.9555 76.2283 25.7246 75.7329 25.597 75.18C25.4791 74.6697 25.4596 74.1292 25.5385 73.5586C25.6872 72.5089 26.0717 71.3078 26.6919 69.9551C26.9254 69.4682 27.1946 69.0216 27.4993 68.6153C27.8041 68.209 28.2056 67.7169 28.7039 67.139L29.0917 66.6687C29.2809 66.4458 29.5334 66.2531 29.8493 66.0906C30.1653 65.9281 30.4946 65.8073 30.8373 65.7282C31.3942 65.5996 31.8997 65.6882 32.3538 65.994C32.8079 66.2997 33.0988 66.729 33.2265 67.2819C33.3999 68.0332 33.3099 68.7184 32.9565 69.3375C32.0647 70.947 30.8831 72.474 29.4118 73.9186C29.1039 74.2136 28.6318 74.5466 27.9955 74.9175L27.186 75.4179C27.5751 75.8656 27.9441 76.2097 28.2929 76.4502C28.6417 76.6907 29.0379 76.8269 29.4815 76.8589C29.588 76.8641 29.8018 76.8782 30.1229 76.9011C30.4441 76.9241 30.7353 76.9315 30.9966 76.9234C31.258 76.9153 31.4958 76.8866 31.7099 76.8371C32.2668 76.7085 32.7488 76.4181 33.1557 75.9658C33.2161 75.9668 33.3106 75.9525 33.4391 75.9228C33.6818 75.8667 33.9156 75.7717 34.1403 75.6377C34.3651 75.5037 34.6165 75.3225 34.8947 75.094C35.3135 74.7584 35.6718 74.5189 35.9696 74.3755C36.2026 74.2769 36.4295 74.12 36.6506 73.9047C36.8716 73.6895 37.0129 73.5523 37.0745 73.4933L37.5528 73.0245C38.3171 72.2956 39.138 71.4865 40.0155 70.597C40.1387 70.479 40.2572 70.3247 40.3712 70.1342C40.4851 69.9436 40.5641 69.8134 40.6081 69.7435C40.8568 69.3875 41.2101 68.8654 41.6679 68.1774C41.8136 68.3528 41.9045 68.5185 41.9405 68.6744C42.0027 68.9437 41.915 69.2477 41.6773 69.5863C40.9113 70.7635 40.306 71.6274 39.8616 72.1779C39.3479 72.8191 38.5246 73.7483 37.3918 74.9654C36.5395 75.8341 35.4503 76.5559 34.1241 77.1308L33.4467 77.4216C32.9764 77.6646 32.5572 77.836 32.1892 77.9359ZM27.0566 73.88C27.1675 73.8394 27.2686 73.8049 27.3598 73.7764C27.451 73.7479 27.5092 73.7232 27.5345 73.7025L27.9749 73.2648C28.0981 73.1468 28.4821 72.7745 29.127 72.1478C29.772 71.5211 30.3562 70.9084 30.8798 70.3097C31.1449 70.0245 31.3992 69.5627 31.6428 68.9241L31.8378 68.4983C31.9535 68.2178 31.9885 67.9783 31.9427 67.7798C31.9001 67.5956 31.795 67.4332 31.6272 67.2928C31.5186 67.2133 31.3891 67.1573 31.2387 67.1249C31.0883 67.0924 30.9346 67.0943 30.7775 67.1306C30.5491 67.1833 30.3677 67.2774 30.2336 67.4129C29.9542 67.7014 29.6633 68.0373 29.3608 68.4207L28.8641 69.0057C28.4429 69.4613 28.1086 69.9678 27.8613 70.5251C27.6139 71.0824 27.3887 71.7353 27.1855 72.484C27.1435 72.6281 27.1113 72.9118 27.0887 73.3351L27.0566 73.88ZM43.7821 65.3153C43.6833 65.2783 43.5412 65.2328 43.3557 65.1785C43.1702 65.1243 43.0188 65.0547 42.9014 64.9699C42.784 64.885 42.7106 64.7787 42.6812 64.6511C42.6452 64.4952 42.6762 64.3201 42.7742 64.1257C42.8722 63.9314 43.0146 63.7828 43.2015 63.68C43.4389 63.5356 43.6432 63.4436 43.8146 63.404C43.9003 63.3842 44.0035 63.3753 44.1243 63.3773C44.2944 63.3978 44.4714 63.4801 44.6551 63.6243C44.8388 63.7686 44.947 63.9115 44.9797 64.0533C45.0092 64.1809 44.9925 64.3042 44.9297 64.4232C44.867 64.5422 44.7707 64.6465 44.641 64.7362L43.7821 65.3153ZM40.5775 78.015C40.349 78.0678 40.147 78.0398 39.9715 77.931C39.796 77.8222 39.6717 77.6418 39.5985 77.39C39.2849 76.3575 39.2878 75.1324 39.6073 73.7148C40.1597 71.482 40.9551 69.3573 41.9936 67.3407C42.0751 67.1726 42.1978 66.9875 42.3617 66.7854C42.5289 66.5975 42.6696 66.4904 42.7839 66.464C42.8838 66.4409 42.9881 66.4691 43.0967 66.5485C43.2228 66.6389 43.3333 66.759 43.428 66.9088C43.5228 67.0586 43.5673 67.1865 43.5617 67.2923C43.5206 67.5705 43.358 67.9739 43.074 68.5023C43.0442 68.5689 42.982 68.6579 42.8874 68.7693C42.7928 68.8808 42.7323 68.9769 42.7058 69.0576L42.2672 70.4803C41.8656 71.7377 41.6125 72.4979 41.5078 72.761C41.1032 73.81 40.8858 74.9203 40.8555 76.0919C40.9147 76.1529 41.0262 76.2615 41.1902 76.4178C41.3541 76.574 41.454 76.7301 41.49 76.8861C41.5457 77.1271 41.4825 77.3582 41.3004 77.5794C41.1183 77.8006 40.8774 77.9458 40.5775 78.015ZM48.2569 64.3718C47.6143 64.5201 47.2226 64.2895 47.0819 63.68C47.0099 63.3681 47.0257 63.1106 47.1292 62.9075C47.2327 62.7045 47.4201 62.5716 47.6914 62.509C48.3911 62.3474 48.8048 62.5431 48.9324 63.096C48.9881 63.3369 48.9393 63.5983 48.7863 63.88C48.6332 64.1617 48.4568 64.3256 48.2569 64.3718ZM39.7561 100.646C39.4515 100.956 39.0993 101.156 38.6994 101.249C38.114 101.384 37.5418 101.299 36.9828 100.995C36.4238 100.691 36.0541 100.247 35.8738 99.6613C35.8203 99.4945 35.7559 99.248 35.6806 98.922C35.2584 97.0933 35.3671 95.284 36.0067 93.4939C36.0442 93.3956 36.1765 92.9918 36.4038 92.2824C36.4678 92.1033 36.5367 91.8971 36.6106 91.6635C36.6845 91.4299 36.7777 91.1658 36.8902 90.871C37.4104 89.5415 37.8543 88.4834 38.2216 87.6968C38.589 86.9103 39.0587 86.1598 39.6308 85.4454C39.9696 85.0237 40.4362 84.3412 41.0306 83.3977C41.4378 82.7512 41.7548 82.2674 41.9815 81.9463C42.8079 80.7701 43.6726 79.6297 44.5758 78.5254C45.0345 77.9715 45.3796 77.414 45.611 76.853C45.8424 76.2919 45.9543 75.6688 45.9465 74.9837C45.9185 73.8853 46.0799 72.4669 46.4306 70.7286L46.7411 69.0443C46.8351 68.6045 46.9079 68.2032 46.9595 67.8404C47.0111 67.4776 47.0273 67.1566 47.0079 66.8774C46.9668 66.4389 47.1034 66.1834 47.4175 66.1109C47.4604 66.101 47.571 66.0755 47.7495 66.0343C47.928 65.9931 48.0881 65.986 48.2297 66.013C48.3713 66.04 48.4854 66.1108 48.5719 66.2252C48.6377 66.3145 48.6837 66.4159 48.7098 66.5293C48.7327 66.6285 48.7451 66.8123 48.7469 67.0806C48.7347 67.1581 48.6873 67.2624 48.6048 67.3934C48.5222 67.5245 48.4732 67.6216 48.4577 67.6849C48.3518 68.008 48.1539 68.9421 47.8639 70.4872C47.7562 71.2587 47.6265 72.4234 47.4748 73.9814C47.4725 74.1014 47.4725 74.232 47.4751 74.3733C47.4776 74.5145 47.4787 74.6823 47.4784 74.8764L48.4766 73.7277C49.2069 72.9171 49.7982 72.2206 50.2504 71.6385C51.191 70.4358 52.0551 69.3741 52.8427 68.4531C53.6302 67.5322 54.4408 66.662 55.2743 65.8424C55.5031 65.5955 55.7317 65.4457 55.9602 65.3929C56.0602 65.3698 56.1403 65.3588 56.2007 65.3598C56.3191 65.4818 56.3304 65.6285 56.2346 65.7999C56.1389 65.9713 55.9892 66.1701 55.7857 66.3963L51.0366 72.308C50.4426 73.0573 49.8842 73.7984 49.3615 74.5313L48.7971 75.3111C48.5374 75.6846 48.3569 75.9129 48.2558 75.996C47.8875 76.29 47.6089 76.6306 47.42 77.0176C47.2311 77.4047 47.0994 77.7785 47.0247 78.1392C46.95 78.4998 46.8705 79.0184 46.786 79.6948C46.6792 80.6004 46.4587 81.9578 46.1243 83.7671L45.9998 84.4005C45.6613 86.0614 45.3358 87.5177 45.0231 88.7694C44.7394 89.8204 44.3989 90.9517 44.0018 92.1632C43.8959 92.4863 43.8093 92.7302 43.7421 92.895C43.3173 94.2473 42.9094 95.3792 42.5182 96.2908C42.138 97.1848 41.7259 97.9892 41.2817 98.7039C40.8376 99.4187 40.329 100.066 39.7561 100.646ZM38.8895 99.7266C39.2712 99.295 39.5899 98.9004 39.8457 98.5427C40.1016 98.185 40.3149 97.8222 40.4856 97.4543C41.0288 96.224 41.7232 94.4437 42.5689 92.1132C42.6891 91.7869 42.8756 91.1615 43.1285 90.2371C43.1639 90.0647 43.2312 89.8028 43.3306 89.4513C43.3725 89.3073 43.434 89.1176 43.5151 88.8824C43.5962 88.6472 43.6544 88.4434 43.6898 88.271C43.7728 87.8487 43.848 87.458 43.9156 87.099C43.9831 86.74 44.05 86.411 44.1163 86.112C44.1607 85.8479 44.3028 85.1283 44.5429 83.953L45.0158 81.6041L45.3411 79.9836L45.2144 79.9233C44.9966 80.1528 44.8877 80.2675 44.8877 80.2675C44.8657 80.3024 44.5202 80.7928 43.8512 81.7386C42.9049 83.0471 42.1709 84.1348 41.6491 85.0018L41.4229 85.39C40.714 86.5541 40.1272 87.563 39.6625 88.4168C39.1979 89.2707 38.7969 90.1397 38.4596 91.0238L38.0892 91.9604C37.7001 92.9461 37.4079 93.749 37.2126 94.3689C37.0174 94.9888 36.8846 95.6354 36.8144 96.3086C36.7784 96.8693 36.7608 97.3139 36.7614 97.6422C36.762 97.9706 36.8015 98.3049 36.8801 98.6451C36.9423 98.9144 37.0024 99.1096 37.0604 99.2306C37.1895 99.5293 37.3733 99.7556 37.6119 99.9095C37.8505 100.063 38.0983 100.111 38.3554 100.051C38.541 100.009 38.719 99.9003 38.8895 99.7266ZM58.3042 61.9626C58.2054 61.9256 58.0633 61.8801 57.8778 61.8258C57.6923 61.7716 57.5409 61.702 57.4235 61.6172C57.3062 61.5323 57.2328 61.426 57.2033 61.2984C57.1673 61.1425 57.1983 60.9674 57.2963 60.773C57.3943 60.5787 57.5368 60.4301 57.7236 60.3273C57.961 60.1829 58.1654 60.0909 58.3367 60.0513C58.4224 60.0315 58.5256 60.0226 58.6464 60.0246C58.8166 60.0451 58.9935 60.1274 59.1772 60.2716C59.3609 60.4159 59.4691 60.5588 59.5018 60.7006C59.5313 60.8282 59.5146 60.9515 59.4519 61.0705C59.3891 61.1895 59.2929 61.2938 59.1632 61.3835L58.3042 61.9626ZM55.0996 74.6623C54.8712 74.7151 54.6692 74.6871 54.4937 74.5783C54.3181 74.4695 54.1938 74.2891 54.1206 74.0373C53.807 73.0048 53.81 71.7797 54.1294 70.3621C54.6818 68.1293 55.4772 66.0046 56.5157 63.988C56.5972 63.8199 56.7199 63.6348 56.8839 63.4327C57.051 63.2448 57.1917 63.1377 57.306 63.1113C57.4059 63.0882 57.5102 63.1164 57.6188 63.1958C57.7449 63.2862 57.8554 63.4063 57.9501 63.5561C58.0449 63.7059 58.0894 63.8338 58.0838 63.9396C58.0427 64.2178 57.8802 64.6212 57.5961 65.1496C57.5663 65.2162 57.5042 65.3052 57.4096 65.4167C57.315 65.5281 57.2544 65.6242 57.228 65.7049L56.7893 67.1276C56.3878 68.385 56.1346 69.1452 56.0299 69.4083C55.6253 70.4573 55.4079 71.5676 55.3776 72.7392C55.4368 72.8002 55.5484 72.9088 55.7123 73.0651C55.8762 73.2214 55.9762 73.3775 56.0122 73.5334C56.0678 73.7744 56.0046 74.0055 55.8225 74.2267C55.6405 74.4479 55.3995 74.5931 55.0996 74.6623ZM91.3799 81.8074C90.2988 82.2063 89.4194 82.5176 88.7415 82.7413C88.0637 82.9649 87.3964 83.1526 86.7395 83.3043C85.3544 83.624 84.264 83.6891 83.4682 83.4996C82.9655 83.4066 82.5474 83.2082 82.2141 82.9045C81.8807 82.6007 81.6666 82.2432 81.5717 81.8321C81.4277 81.2084 81.5642 80.5946 81.9813 79.9906C81.9896 80.2873 82.0265 80.5774 82.092 80.8609C82.3014 81.7682 82.7736 82.3311 83.5084 82.5496C84.2432 82.7682 85.1889 82.744 86.3455 82.477C87.1451 82.2923 88.3898 81.8855 90.0795 81.2565C98.2711 78.1709 105.996 73.6848 113.256 67.7982C117.969 63.9777 121.92 59.7582 125.11 55.1395C126.363 53.2677 127.388 51.4221 128.186 49.6029C128.985 47.7836 129.526 45.893 129.81 43.9312C130.016 42.48 129.969 41.1023 129.668 39.7981C129.049 37.1189 127.339 34.8261 124.538 32.9196C123.184 32.0078 121.713 31.2723 120.125 30.7132C118.537 30.1541 116.793 29.6983 114.892 29.3459C110.3 28.4798 105.519 28.4563 100.549 29.2751C99.2048 29.5108 97.99 29.754 96.9048 30.0045C94.0061 30.6737 91.4041 31.5208 89.0989 32.5458L86.6464 33.6495C85.8004 34.024 84.9326 34.4184 84.0431 34.8328C83.1536 35.2472 82.3408 35.6514 81.6045 36.0453C78.7891 37.5315 76.2553 39.1952 74.0033 41.0366C71.7512 42.8779 69.8075 44.9803 68.1723 47.3437C67.4658 48.3877 66.897 49.4746 66.466 50.6044C66.1176 51.506 66.0334 52.3467 66.2134 53.1263C66.3705 53.8068 66.7133 54.3958 67.2418 54.8934C67.7703 55.3911 68.4494 55.7756 69.2791 56.0469C70.4304 56.4082 71.5778 56.6547 72.7212 56.7864C73.8646 56.9181 75.375 57.0435 77.2524 57.1625L78.509 57.2307C81.3164 57.4038 83.5776 57.5723 85.2925 57.7363C87.0073 57.9004 88.7352 58.1696 90.4761 58.5441C90.823 58.6134 91.4678 58.8004 92.4106 59.1054C92.6926 59.2194 93.1162 59.3605 93.6815 59.5287C95.208 54.2191 96.3873 50.2065 97.2194 47.4911C97.9975 44.803 98.8823 42.023 99.8738 39.1513C99.9874 38.7966 100.098 38.5433 100.206 38.3915C100.314 38.2397 100.468 38.1407 100.668 38.0946C100.796 38.0649 100.989 38.0539 101.247 38.0617C101.504 38.0694 101.785 38.0829 102.091 38.102C102.048 38.306 102.006 38.5507 101.967 38.8361C101.927 39.1214 101.894 39.3344 101.866 39.4752C101.809 40.0109 101.739 40.4714 101.655 40.8566C101.571 41.2418 101.446 41.5955 101.279 41.9175C100.958 42.5442 100.7 43.1711 100.507 43.7981C100.313 44.4252 100.083 45.2696 99.8168 46.3315C99.7107 46.8487 99.5621 47.4429 99.3711 48.1141C99.1415 48.9436 98.7983 50.389 98.3417 52.4504L97.8277 54.7192C97.8123 54.7825 97.7749 54.9628 97.7157 55.2602C97.6566 55.5575 97.5505 55.7985 97.3976 55.9831C97.2447 56.1677 97.043 56.3039 96.7925 56.3916C96.6706 56.4496 96.5639 56.5414 96.4726 56.667C96.3812 56.7926 96.3023 56.9228 96.2356 57.0577C96.169 57.1925 96.1247 57.2774 96.1027 57.3123C96.042 57.5055 95.9762 57.7745 95.9055 58.1194C95.8302 58.51 95.7738 58.7545 95.7363 58.8527C95.4332 59.6245 95.3684 60.386 95.5418 61.1373C95.6498 61.6051 95.8435 62.0531 96.1229 62.4813C96.3683 62.8278 96.5401 63.2137 96.6383 63.639C96.7528 64.1351 96.764 64.7373 96.6718 65.4454C96.4588 66.8682 96.1414 68.1808 95.7196 69.3831C95.2978 70.5854 94.7035 71.7081 93.9366 72.7511C93.7417 73.0798 93.4167 73.4311 92.9616 73.8049L92.63 74.1278C92.42 74.3256 92.221 74.5059 92.033 74.6688C91.845 74.8317 91.6751 74.9754 91.5234 75.1C91.0177 75.5154 90.64 75.834 90.3904 76.0559C90.3202 76.0124 90.2325 75.958 90.1272 75.8927C90.0218 75.8274 89.9731 75.779 89.9808 75.7473C89.9701 75.5706 89.8909 74.5437 89.7433 72.6666C89.7273 72.4015 89.7048 72.011 89.6759 71.4951C89.647 70.9792 89.6099 70.5249 89.5643 70.1322C89.431 68.9685 89.8518 68.0875 90.8267 67.4891C91.6147 66.9937 92.1165 66.2358 92.3322 65.2154C92.4173 64.8673 92.5815 64.1127 92.8248 62.9516L93.1599 61.3737C92.6532 60.9382 92.1017 60.6176 91.5052 60.4119C90.9087 60.2061 90.1308 60.0125 89.1714 59.8308L88.5127 59.7141C87.0649 59.4362 85.6199 59.236 84.1778 59.1135C82.7357 58.9911 80.9091 58.8641 78.6978 58.7325L74.9182 58.4853C73.2077 58.3725 71.7744 58.2069 70.6186 57.9885C69.4627 57.7701 68.3488 57.3591 67.2769 56.7555C66.623 56.3988 66.0629 55.9271 65.5966 55.3405C65.1303 54.7538 64.8202 54.1274 64.6664 53.4611C64.5256 52.8516 64.5194 52.2707 64.6476 51.7185C64.9206 50.4908 65.3443 49.3292 65.9186 48.2335C66.4929 47.1379 67.2261 46.0466 68.1182 44.9597C68.6572 44.2977 69.2196 43.6714 69.8052 43.0808C70.3907 42.4902 71.158 41.742 72.107 40.836L72.5309 40.4246C73.2951 39.6957 74.1059 39.0382 74.9633 38.452C75.8206 37.8659 76.9543 37.1413 78.3644 36.2782L79.7245 35.4267C83.0953 33.3495 86.8768 31.6179 91.069 30.232C93.3474 29.482 95.4291 28.8894 97.3139 28.4543C101.526 27.4818 105.482 27.0911 109.181 27.2823C112.244 27.4561 115.056 27.8596 117.616 28.4929C120.176 29.1262 122.564 30.1353 124.779 31.5202C128.123 33.6298 130.162 36.2722 130.895 39.4476C131.324 41.3046 131.298 43.3413 130.817 45.5576C130.486 47.1868 129.968 48.7697 129.262 50.3063C128.557 51.8429 127.691 53.3865 126.666 54.9373C123.694 59.4606 120.118 63.4816 115.937 67.0001C113.888 68.6824 112.133 70.0844 110.67 71.2061C109.206 72.3278 107.71 73.3863 106.18 74.3815C102.108 77.0686 97.4177 79.4579 92.1099 81.5493L91.3799 81.8074ZM92.1722 71.949C92.8495 71.2999 93.4187 70.5078 93.8796 69.5727C94.3405 68.6376 94.6475 67.6709 94.8006 66.6725C94.9536 65.6741 94.9352 64.7638 94.7454 63.9416C94.6734 63.6297 94.6067 63.4062 94.5455 63.2711C93.9758 65.2988 93.1847 68.1915 92.1722 71.949ZM81.9782 79.8793L82.0143 79.9382L81.9813 79.9906L81.9782 79.8793ZM139.691 53.117C139.552 53.1642 139.339 53.2207 139.054 53.2867C137.597 53.6229 136.266 53.4899 135.059 52.8876C134.548 52.6321 134.126 52.2854 133.792 51.8474C133.458 51.4094 133.227 50.914 133.099 50.3612C132.981 49.8509 132.962 49.3104 133.041 48.7397C133.189 47.6901 133.574 46.4889 134.194 45.1363C134.428 44.6494 134.697 44.2028 135.002 43.7964C135.306 43.3901 135.708 42.898 136.206 42.3201L136.594 41.8498C136.783 41.627 137.036 41.4343 137.352 41.2718C137.668 41.1092 137.997 40.9884 138.34 40.9093C138.896 40.7807 139.402 40.8693 139.856 41.1751C140.31 41.4809 140.601 41.9102 140.729 42.463C140.902 43.2143 140.812 43.8996 140.459 44.5187C139.567 46.1281 138.385 47.6551 136.914 49.0997C136.606 49.3948 136.134 49.7277 135.498 50.0986L134.688 50.599C135.077 51.0467 135.446 51.3908 135.795 51.6313C136.144 51.8718 136.54 52.008 136.984 52.04C137.09 52.0453 137.304 52.0594 137.625 52.0823C137.946 52.1052 138.238 52.1126 138.499 52.1046C138.76 52.0965 138.998 52.0677 139.212 52.0183C139.769 51.8897 140.251 51.5993 140.658 51.147C140.718 51.1479 140.813 51.1336 140.941 51.1039C141.184 51.0479 141.418 50.9529 141.643 50.8189C141.867 50.6848 142.119 50.5036 142.397 50.2752C142.816 49.9396 143.174 49.7 143.472 49.5566C143.705 49.4581 143.932 49.3012 144.153 49.0859C144.374 48.8706 144.515 48.7335 144.577 48.6745L145.055 48.2057C145.819 47.4768 146.64 46.6676 147.518 45.7782C147.641 45.6601 147.759 45.5059 147.873 45.3153C147.987 45.1248 148.066 44.9946 148.11 44.9247C148.359 44.5686 148.712 44.0466 149.17 43.3586C149.316 43.534 149.407 43.6996 149.443 43.8556C149.505 44.1249 149.417 44.4288 149.18 44.7674C148.414 45.9447 147.808 46.8085 147.364 47.3591C146.85 48.0003 146.027 48.9295 144.894 50.1466C144.042 51.0153 142.953 51.7371 141.626 52.312L140.949 52.6028C140.479 52.8457 140.059 53.0172 139.691 53.117ZM134.559 49.0611C134.67 49.0206 134.771 48.9861 134.862 48.9575C134.953 48.929 135.011 48.9044 135.037 48.8836L135.477 48.446C135.6 48.328 135.984 47.9556 136.629 47.3289C137.274 46.7022 137.858 46.0895 138.382 45.4909C138.647 45.2057 138.901 44.7438 139.145 44.1053L139.34 43.6795C139.456 43.399 139.491 43.1594 139.445 42.961C139.402 42.7767 139.297 42.6143 139.129 42.4739C139.021 42.3945 138.891 42.3385 138.741 42.306C138.591 42.2736 138.437 42.2754 138.28 42.3117C138.051 42.3645 137.87 42.4586 137.736 42.5941C137.457 42.8825 137.166 43.2185 136.863 43.6019L136.366 44.1869C135.945 44.6424 135.611 45.1489 135.364 45.7062C135.116 46.2635 134.891 46.9165 134.688 47.6652C134.646 47.8092 134.614 48.0929 134.591 48.5162L134.559 49.0611ZM156.871 53.9439C156.719 53.8743 156.59 53.7213 156.483 53.4847C156.375 53.2482 156.291 52.9953 156.228 52.7259C156.159 52.294 156.2 51.8516 156.351 51.3987C157.466 47.4981 158.584 43.7087 159.705 40.0306C160.21 38.376 160.902 36.2602 161.781 33.6832L162.627 31.0915C162.628 31.0315 162.618 30.9704 162.596 30.9083C162.574 30.8462 162.555 30.7797 162.539 30.7088C162.453 30.7286 161.939 30.9143 160.998 31.2661C160.804 31.3406 160.475 31.4614 160.01 31.6285C159.544 31.7957 159.128 31.9292 158.76 32.0291C158.563 32.0894 158.272 32.1641 157.887 32.2531C156.987 32.4608 156.194 32.5767 155.508 32.6007C155.209 32.61 154.952 32.5387 154.736 32.3869C154.521 32.235 154.382 32.0245 154.32 31.7551C154.228 31.3582 154.325 30.9626 154.61 30.5683C154.792 30.3171 155.038 30.0625 155.347 29.8046C155.656 29.5466 155.95 29.3034 156.228 29.0749C157.23 28.3358 158.21 27.8558 159.167 27.635C159.895 27.4668 160.642 27.4438 161.407 27.5657C161.754 27.635 162.273 27.7988 162.964 28.0573L163.509 28.2674C163.534 28.2467 163.584 28.2016 163.658 28.1322C163.732 28.0628 163.765 28.0068 163.755 27.9643C163.689 27.1583 163.735 26.3452 163.891 25.5252C164.048 24.7051 164.284 23.8405 164.601 22.9313L165.98 18.9397L166.717 16.754C166.814 16.5225 166.836 16.2934 166.784 16.0666C166.754 15.939 166.676 15.763 166.549 15.5385C166.419 15.2998 166.322 15.0458 166.26 14.7765C166.191 14.4788 166.183 14.1821 166.235 13.8864C166.503 12.3762 166.815 11.1844 167.169 10.3111C168.079 8.19005 169.457 5.88601 171.304 3.39901C172.085 2.35264 172.761 1.50226 173.332 0.847875C173.62 0.467773 173.879 0.251347 174.107 0.1986C174.307 0.152447 174.52 0.192992 174.744 0.320242C174.973 0.461673 175.111 0.638706 175.16 0.85134C175.216 1.09233 175.161 1.44095 174.996 1.89721L174.333 3.61807L173.653 5.36514C172.453 8.37467 171.464 10.8651 170.685 12.8365L170.175 14.1415C168.947 17.2918 168.038 19.6742 167.448 21.2885C167.237 21.8747 166.82 23.1283 166.195 25.0492C165.797 26.3207 165.503 27.2321 165.315 27.7833L166.391 27.2661C167.205 26.884 167.719 26.6311 167.931 26.5075C171.367 24.7138 175.011 22.2898 178.863 19.2354C179.462 18.7686 180.022 18.2773 180.542 17.7615C181.062 17.2458 181.765 16.5273 182.65 15.6063C183.18 15.0359 183.587 14.6136 183.869 14.3393C184.595 13.5745 185.201 12.8448 185.688 12.1502C186.245 11.3049 186.921 10.1633 187.717 8.72529C187.794 8.60299 187.845 8.46436 187.869 8.30941C187.894 8.15447 187.897 8.00447 187.878 7.85942C187.861 7.65436 187.838 7.48805 187.808 7.36047C187.743 7.07696 187.65 6.90421 187.531 6.84223C187.365 6.77597 187.146 6.77415 186.875 6.83679C186.675 6.88294 186.491 6.96288 186.321 7.07662C184.755 8.11013 183.659 9.42319 183.034 11.0158C182.93 11.2789 182.762 11.5939 182.531 11.9608L182.255 12.4276C181.747 12.2463 181.457 11.9997 181.385 11.6878C181.336 11.4752 181.372 11.2428 181.494 10.9906C182.664 8.436 184.266 6.61047 186.299 5.514C186.543 5.39796 186.736 5.32345 186.879 5.29048C187.436 5.16192 187.96 5.2314 188.45 5.49892C188.94 5.76644 189.253 6.19081 189.387 6.77201C189.443 7.013 189.452 7.31679 189.417 7.68338C189.334 8.43403 189.131 9.13062 188.805 9.77313C188.48 10.4157 188.009 11.1961 187.394 12.1146C186.405 13.6271 185.259 15.0488 183.957 16.3797C182.655 17.7105 181.144 19.0821 179.425 20.4944C176.142 23.1485 172.282 25.682 167.846 28.0948L166.613 28.7154L165.164 29.4755C165.155 29.5671 165.147 29.6623 165.14 29.7611C165.133 29.8598 165.139 29.9217 165.16 29.9468C166.205 31.7362 167.102 33.194 167.851 34.3201C168.599 35.4463 169.489 36.5474 170.52 37.6234C171.55 38.6994 172.717 39.617 174.02 40.3763C176.16 41.6293 178.392 42.2114 180.718 42.1224C182.087 42.0601 183.507 41.8591 184.978 41.5196C186.377 41.1965 187.818 40.7594 189.3 40.2082C193.957 38.4909 198.151 36.3954 201.882 33.9216C202.065 33.8046 202.66 33.3836 203.666 32.6586C204.632 31.9578 205.383 31.4334 205.919 31.0856C206.456 30.7378 206.888 30.526 207.217 30.4502C207.559 30.3711 207.744 30.4853 207.77 30.7929C207.373 31.0936 207.008 31.3718 206.676 31.6276C206.344 31.8834 206.045 32.1168 205.778 32.3278C204.301 33.4899 203.065 34.4211 202.068 35.1215C201.072 35.8219 199.958 36.5009 198.726 37.1586C196.129 38.5495 193.718 39.7183 191.493 40.6651C189.267 41.6119 187.005 42.3507 184.706 42.8814C181.764 43.5605 179.058 43.5656 176.588 42.8968C174.948 42.4392 173.407 41.6602 171.965 40.5597C169.429 38.6964 167.317 36.2276 165.63 33.1531C165.499 32.9144 165.214 32.4949 164.775 31.8946L164.349 31.321C163.897 31.9032 163.14 33.739 162.079 36.8285C161.017 39.9179 160.042 43.0397 159.154 46.1938C158.265 49.3479 157.831 51.2958 157.852 52.0376C158.526 51.3743 159.304 50.4108 160.185 49.1472C160.799 48.2888 161.33 47.5914 161.778 47.055C162.225 46.5186 162.731 46.0362 163.293 45.6076C163.575 45.7217 163.738 45.8708 163.78 46.0551C163.82 46.2252 163.759 46.4184 163.598 46.6347L158.809 52.9588C158.571 53.2974 158.365 53.5094 158.189 53.5948C157.837 53.7655 157.54 53.8789 157.297 53.935C157.126 53.9745 156.984 53.9775 156.871 53.9439ZM170.284 8.06907L170.505 7.65962C170.238 7.8706 170.066 8.01871 169.988 8.10393C169.91 8.18914 169.862 8.2784 169.846 8.3717C169.83 8.46499 169.834 8.62834 169.858 8.86175L170.284 8.06907ZM167.651 13.9625C168.197 13.1347 168.627 12.2741 168.939 11.3807C169.252 10.4873 169.37 9.81053 169.294 9.35031C168.788 9.95987 168.418 10.6387 168.185 11.3869C167.952 12.1351 167.774 12.9936 167.651 13.9625ZM155.992 31.2794C156.299 31.2385 156.73 31.1538 157.287 31.0252C158.887 30.656 160.384 30.0415 161.78 29.1818C160.951 28.8504 160.13 28.7787 159.316 28.9666C158.545 29.1447 157.719 29.5742 156.839 30.2553C156.723 30.3417 156.581 30.5088 156.413 30.7567C156.351 30.8157 156.29 30.8898 156.227 30.9788C156.165 31.0678 156.087 31.168 155.992 31.2794ZM215.962 35.1054C215.462 35.2208 214.969 35.2004 214.481 35.0441C213.994 34.8879 213.578 34.6145 213.232 34.224C212.886 33.8335 212.652 33.376 212.531 32.8515L212.502 32.7239C212.482 32.6389 212.422 32.4437 212.322 32.1384C211.651 32.8159 211.177 33.306 210.901 33.6086L210.383 34.1985C209.816 34.8671 209.369 35.3435 209.044 35.6276C208.744 35.891 208.235 36.1652 207.519 36.45C207.272 36.5519 207.002 36.5245 206.71 36.3679C206.419 36.2113 206.24 35.9913 206.174 35.7077C205.985 34.8855 205.928 34.2191 206.006 33.7085C206.259 32.2616 206.801 30.9942 207.633 29.9063C207.713 29.7981 207.899 29.5461 208.191 29.1502C208.483 28.7542 208.783 28.4052 209.089 28.1031C209.395 27.8009 209.706 27.5536 210.023 27.3611C210.286 27.1959 210.553 27.082 210.824 27.0194C211.238 26.9238 211.624 26.9504 211.982 27.0992C212.339 27.2481 212.662 27.5208 212.949 27.9174C212.97 27.9424 213.028 28.0334 213.125 28.1903C213.221 28.3473 213.327 28.4496 213.444 28.4974C213.74 28.6082 213.916 28.7841 213.972 29.0251C214.011 29.1952 214 29.4068 213.938 29.66C213.772 30.3104 213.676 30.9373 213.65 31.5406C213.627 31.8297 213.649 32.1231 213.718 32.4208C213.862 33.0445 214.194 33.4754 214.716 33.7134C215.054 33.8743 215.501 33.8905 216.058 33.7619C216.743 33.6037 217.477 33.1655 218.259 32.4475C219.131 31.6639 220.287 30.516 221.728 29.0038C222.352 28.3221 222.981 27.5574 223.612 26.7098C223.729 26.5635 223.873 26.3734 224.044 26.1397C224.155 26.2933 224.224 26.4268 224.25 26.5402C224.302 26.767 224.229 27.0377 224.031 27.3522C223.822 27.6842 223.717 27.8501 223.717 27.8501C223.394 28.4027 223.132 28.7991 222.932 29.0394L222.206 29.9013C220.91 31.4547 219.908 32.5893 219.201 33.305C218.281 34.2043 217.201 34.8045 215.962 35.1054ZM207.448 35.1673C208.372 34.4763 209.209 33.6894 209.96 32.8068C210.712 31.9241 211.501 30.8946 212.327 29.7184C212.248 29.3781 212.174 29.1192 212.102 28.9415C212.022 28.7213 211.867 28.5554 211.638 28.444C211.409 28.3326 211.181 28.3033 210.952 28.356C210.909 28.3659 210.834 28.3982 210.726 28.4529C210.464 28.6181 210.2 28.8432 209.935 29.1284C209.305 29.856 208.78 30.5597 208.358 31.2394C207.936 31.9192 207.632 32.6389 207.446 33.3984C207.426 33.5075 207.391 33.6464 207.339 33.815C207.288 33.9837 207.253 34.1411 207.234 34.2873C207.215 34.4335 207.222 34.5775 207.255 34.7192C207.291 34.8752 207.355 35.0245 207.448 35.1673ZM230.08 32.2492C229.94 32.2964 229.728 32.3529 229.442 32.4188C227.986 32.7551 226.654 32.6221 225.447 32.0198C224.937 31.7643 224.515 31.4176 224.18 30.9796C223.846 30.5416 223.615 30.0462 223.488 29.4934C223.37 28.983 223.35 28.4426 223.429 27.8719C223.578 26.8222 223.962 25.6211 224.583 24.2685C224.816 23.7816 225.085 23.3349 225.39 22.9286C225.695 22.5223 226.096 22.0302 226.595 21.4523L226.982 20.982C227.172 20.7592 227.424 20.5665 227.74 20.404C228.056 20.2414 228.385 20.1206 228.728 20.0415C229.285 19.9129 229.79 20.0015 230.244 20.3073C230.699 20.6131 230.99 21.0424 231.117 21.5952C231.291 22.3465 231.201 23.0317 230.847 23.6509C229.955 25.2603 228.774 26.7873 227.302 28.2319C226.995 28.527 226.522 28.8599 225.886 29.2308L225.077 29.7312C225.466 30.1789 225.835 30.523 226.184 30.7635C226.532 31.004 226.929 31.1402 227.372 31.1722C227.479 31.1775 227.692 31.1916 228.014 31.2145C228.335 31.2374 228.626 31.2448 228.887 31.2367C229.149 31.2287 229.386 31.1999 229.601 31.1505C230.158 31.0219 230.639 30.7314 231.046 30.2791C231.107 30.2801 231.201 30.2658 231.33 30.2361C231.573 30.1801 231.806 30.085 232.031 29.951C232.256 29.817 232.507 29.6358 232.785 29.4073C233.204 29.0717 233.563 28.8322 233.86 28.6888C234.093 28.5903 234.32 28.4333 234.541 28.2181C234.762 28.0028 234.904 27.8656 234.965 27.8066L235.443 27.3379C236.208 26.609 237.029 25.7998 237.906 24.9104C238.029 24.7923 238.148 24.638 238.262 24.4475C238.376 24.257 238.455 24.1267 238.499 24.0569C238.747 23.7008 239.101 23.1788 239.559 22.4908C239.704 22.6661 239.795 22.8318 239.831 22.9877C239.893 23.2571 239.806 23.561 239.568 23.8996C238.802 25.0768 238.197 25.9407 237.752 26.4913C237.239 27.1325 236.415 28.0616 235.282 29.2788C234.43 30.1474 233.341 30.8692 232.015 31.4442L231.337 31.735C230.867 31.9779 230.448 32.1493 230.08 32.2492ZM224.947 28.1933C225.058 28.1528 225.159 28.1182 225.25 28.0897C225.342 28.0612 225.4 28.0366 225.425 28.0158L225.866 27.5782C225.989 27.4602 226.373 27.0878 227.018 26.4611C227.663 25.8344 228.247 25.2217 228.77 24.623C229.036 24.3379 229.29 23.876 229.533 23.2375L229.728 22.8117C229.844 22.5311 229.879 22.2916 229.833 22.0932C229.791 21.9089 229.686 21.7465 229.518 21.6061C229.409 21.5266 229.28 21.4707 229.129 21.4382C228.979 21.4057 228.825 21.4076 228.668 21.4439C228.44 21.4966 228.258 21.5908 228.124 21.7263C227.845 22.0147 227.554 22.3506 227.251 22.734L226.755 23.319C226.334 23.7746 225.999 24.2811 225.752 24.8384C225.505 25.3957 225.279 26.0487 225.076 26.7974C225.034 26.9414 225.002 27.2251 224.979 27.6484L224.947 28.1933ZM238.432 34.7109C238.189 34.7669 237.99 34.7381 237.836 34.6243C237.682 34.5106 237.581 34.3474 237.532 34.1348L237.507 34.0285C237.484 33.9292 237.478 33.7738 237.49 33.5621L237.652 32.8975C237.718 32.5985 237.796 32.282 237.884 31.9481C237.972 31.6141 238.056 31.2589 238.134 30.8824L239.013 27.1633C239.064 26.9276 239.118 26.7211 239.174 26.5437C239.231 26.3663 239.275 26.2144 239.306 26.0878C239.451 25.6064 239.536 25.3254 239.563 25.2446L239.727 24.49L239.947 23.5881L239.796 23.4214C239.437 23.2355 239.164 23.0633 238.977 22.9049C238.79 22.7465 238.676 22.5752 238.633 22.3909C238.597 22.2349 238.603 22.0656 238.651 21.8828C238.699 21.7 238.795 21.465 238.94 21.1779C239.198 20.6702 239.648 20.0438 240.288 19.2988C240.299 19.2813 240.392 19.1628 240.567 18.9432C240.687 18.811 240.971 18.708 241.421 18.6342C241.627 18.6164 241.799 18.6589 241.935 18.7617C242.072 18.8646 242.141 19.0202 242.144 19.2286C242.143 20.0052 242.109 20.6702 242.041 21.2234C242.024 21.3467 241.997 21.521 241.959 21.7463C241.92 21.9716 241.917 22.1852 241.949 22.3869C242.229 22.0385 242.382 21.8539 242.407 21.8331L243.407 20.5944C243.455 20.5386 243.546 20.428 243.68 20.2626C243.815 20.0971 243.952 19.9907 244.092 19.9436C244.231 19.8965 244.371 19.8493 244.51 19.8022C244.65 19.755 244.791 19.715 244.934 19.682C245.291 19.5996 245.566 19.6332 245.758 19.7829C245.95 19.9326 246.116 20.2751 246.255 20.8105C246.395 21.2858 246.544 21.7367 246.702 22.1629C246.801 22.394 246.923 22.5337 247.07 22.582C247.216 22.6303 247.425 22.6231 247.697 22.5605C248.479 22.365 249.191 22.0475 249.834 21.6078C250.477 21.1682 251.147 20.5993 251.843 19.9011C251.999 19.7306 252.134 19.6322 252.248 19.6059C252.377 19.5762 252.52 19.6403 252.676 19.7982C252.553 20.1104 252.382 20.3962 252.164 20.6557C251.945 20.9151 251.65 21.2148 251.277 21.5547C250.279 22.4422 249.355 23.1331 248.507 23.6276C248.298 23.7654 248.037 23.8706 247.722 23.9431C247.337 24.0321 246.964 24.0437 246.602 23.9777C246.291 23.9303 245.928 23.566 245.515 22.8849C245.382 22.632 245.224 22.2429 245.043 21.7174L244.841 21.1368C244.359 21.4573 243.96 21.8179 243.647 22.2188C243.333 22.6197 243.064 23.0142 242.837 23.4024C242.611 23.7906 242.459 24.0458 242.382 24.1681C241.79 25.1858 241.339 26.0663 241.029 26.8097C240.575 28.0344 240.153 29.3338 239.764 30.7079C239.644 31.1684 239.45 32.0196 239.18 33.2615L239.074 33.7787L238.931 34.2371C238.827 34.5002 238.66 34.6581 238.432 34.7109ZM240.525 21.887L240.319 21.7777L240.155 22.241L240.33 22.3127L240.525 21.887ZM255.521 26.3533C255.247 26.536 254.996 26.6537 254.768 26.7064C254.368 26.7987 253.972 26.7781 253.58 26.6446C253.188 26.5111 252.849 26.3096 252.561 26.0401C252.273 25.7706 252.086 25.4815 252 25.173C251.953 25.0345 251.895 24.8164 251.826 24.5187C251.548 23.3138 251.533 21.9808 251.783 20.5197L252.032 18.9615C252.066 18.8491 252.132 18.6772 252.229 18.4458C252.266 18.3475 252.311 18.2476 252.363 18.1461C252.414 18.0446 252.461 17.9218 252.503 17.7777C252.522 17.7286 252.539 17.6724 252.555 17.6091C252.57 17.5458 252.589 17.4967 252.611 17.4617C252.737 17.1637 252.936 16.9834 253.208 16.9207C253.308 16.8977 253.382 16.8953 253.432 16.9138C253.644 16.9844 253.776 17.133 253.828 17.3598C253.864 17.5158 253.861 17.6658 253.819 17.8098C253.703 18.4787 253.486 19.492 253.167 20.8495C252.869 22.098 252.879 23.2826 253.198 24.4035C253.304 24.7971 253.478 25.078 253.72 25.2461C253.962 25.4143 254.225 25.4654 254.511 25.3994C254.754 25.3434 255 25.2044 255.25 24.9826C256.368 23.9629 257.245 22.9093 257.881 21.8217L258.758 20.3427C259.927 18.3706 260.501 17.402 260.479 17.437C260.575 17.2656 260.701 16.9975 260.857 16.6329L261.125 16.0336C261.278 15.6548 261.462 15.4407 261.676 15.3912C261.733 15.3781 261.825 15.3866 261.953 15.417C262.066 15.4506 262.175 15.5336 262.281 15.6659C262.387 15.7983 262.459 15.9495 262.498 16.1196C262.525 16.233 262.526 16.3372 262.503 16.4322C262.482 16.6013 262.441 16.7824 262.38 16.9756C262.319 17.1688 262.273 17.3587 262.241 17.5453C262.201 17.7635 262.178 17.9256 262.173 18.0314C262.076 18.5912 261.957 19.4101 261.815 20.4881C261.79 20.8372 261.791 21.0684 261.817 21.1818C261.869 21.4087 261.964 21.5735 262.1 21.6764C262.237 21.7792 262.405 21.8076 262.605 21.7614C262.648 21.7515 262.738 21.7159 262.874 21.6546C263.452 21.3569 263.976 20.9745 264.448 20.5073C264.919 20.0402 265.39 19.491 265.861 18.8597C266.339 18.1967 266.686 17.6799 266.902 17.3092C267.117 16.9385 267.326 16.4459 267.531 15.8314C267.549 15.7822 267.592 15.7238 267.659 15.6561C267.726 15.5883 267.784 15.5266 267.831 15.4709C267.989 15.5688 268.086 15.6957 268.122 15.8516C268.145 15.9509 268.15 16.0542 268.137 16.1617C268.124 16.2691 268.116 16.3458 268.111 16.3916C268.087 16.5466 268.037 16.7223 267.962 16.9188C267.887 17.1152 267.836 17.2539 267.81 17.3346C267.475 18.0988 267.189 18.6837 266.952 19.0894C266.714 19.495 266.361 19.9535 265.893 20.4648C265.283 21.1433 264.767 21.6768 264.345 22.0653C263.923 22.4538 263.431 22.7652 262.868 22.9996C262.786 23.0336 262.666 23.0687 262.509 23.105C262.095 23.2006 261.73 23.1655 261.413 22.9996C261.097 22.8338 260.87 22.5503 260.732 22.1491C260.651 21.9289 260.596 21.755 260.566 21.6274L260.401 20.8144C260.17 20.9872 259.979 21.1994 259.826 21.4511C259.674 21.7028 259.581 21.8549 259.548 21.9073C258.418 23.7211 257.075 25.2031 255.521 26.3533ZM267.035 21.9928C266.757 21.8929 266.593 21.7367 266.544 21.524C266.517 21.4106 266.514 21.2994 266.534 21.1903C266.571 20.9578 266.64 20.3147 266.743 19.2607C266.884 17.7202 266.98 16.8021 267.032 16.5063C267.168 15.7283 267.328 14.9525 267.51 14.1787C267.576 13.8797 267.745 13.2435 268.017 12.27C268.108 11.9502 268.29 11.759 268.561 11.6963C268.818 11.637 268.996 11.6593 269.096 11.7633C269.195 11.8674 269.278 12.0311 269.344 12.2546C269.385 12.3647 269.437 12.4909 269.499 12.6332C269.562 12.7754 269.609 12.8803 269.64 12.9479C269.722 13.1081 269.776 13.245 269.802 13.3584C269.835 13.5001 269.814 13.6207 269.739 13.7201C269.664 13.8195 269.51 13.9485 269.276 14.107C269.056 14.2623 268.924 14.4384 268.879 14.6354C268.834 14.8324 268.816 15.0457 268.823 15.2753C268.831 15.5049 268.834 15.6797 268.832 15.7997L269.137 15.4605C269.624 14.9 269.984 14.5035 270.216 14.2707C270.775 13.6938 271.282 13.2184 271.737 12.8446C271.939 12.6784 272.197 12.5591 272.511 12.4866C272.84 12.4107 273.168 12.417 273.497 12.5054C273.826 12.5937 274.123 12.7566 274.388 12.9939C274.654 13.2313 274.869 13.4652 275.035 13.6956C275.201 13.9261 275.319 14.1901 275.387 14.4878C275.414 14.6012 275.478 14.732 275.579 14.8802C275.681 15.0284 275.758 15.1488 275.809 15.2414L277.526 13.0983C278.257 12.2276 278.911 11.5428 279.488 11.0439C280.065 10.5449 280.748 10.1819 281.538 9.95472C281.806 9.87792 282.045 9.87124 282.255 9.9347C282.465 9.99816 282.696 10.1202 282.949 10.3009C283.324 10.5577 283.606 10.8695 283.796 11.2362C283.986 11.603 284.138 12.0344 284.253 12.5306L284.477 13.5987C284.543 13.8822 284.634 14.1485 284.752 14.3976C284.869 14.6466 285.037 14.9477 285.254 15.3008C285.456 15.6571 285.756 15.7521 286.154 15.5856C286.637 15.3993 286.933 15.2789 287.041 15.2241L288.653 14.292L290.044 13.478C290.638 13.1171 291.216 12.5281 291.78 11.7112C291.835 11.6238 291.926 11.4832 292.055 11.2894C292.183 11.0955 292.317 10.9301 292.459 10.7929C292.6 10.6558 292.75 10.5391 292.908 10.4428C293.058 10.5724 293.15 10.708 293.183 10.8498C293.222 11.0199 293.15 11.2306 292.967 11.4818C292.923 11.5517 292.746 11.7941 292.436 12.2092C292.126 12.6242 291.8 13.0055 291.459 13.3529C290.232 14.6815 288.773 15.7574 287.083 16.5805C286.868 16.69 286.624 16.776 286.353 16.8387C285.696 16.9903 285.108 16.9021 284.589 16.5741C284.069 16.2461 283.689 15.7218 283.447 15.0011C283.29 14.5148 283.157 14.0378 283.049 13.57L282.78 12.6018C282.498 11.6369 282.049 11.2253 281.435 11.367C281.107 11.4428 280.77 11.6474 280.426 11.9807L279.834 12.5429C279.436 12.9036 279.146 13.1795 278.965 13.3707C278.787 13.5761 278.546 13.9005 278.242 14.3439L277.88 14.8305L277.59 15.2335C277.203 15.7709 276.896 16.1701 276.671 16.4312C276.42 16.7131 276.159 16.8853 275.888 16.9479C275.616 17.0106 275.362 16.9685 275.125 16.8216C274.888 16.6747 274.702 16.4378 274.566 16.1108C274.447 15.8546 274.297 15.4638 274.115 14.9383C274.096 14.8532 274.075 14.7982 274.054 14.7731C273.775 14.1507 273.372 13.9005 272.843 14.0225C272.686 14.0587 272.529 14.125 272.37 14.2213C272.104 14.3723 271.864 14.551 271.648 14.7575C271.433 14.9641 271.181 15.2274 270.894 15.5475L270.594 15.908C270.114 16.4368 269.714 16.9324 269.392 17.395C269.07 17.8575 268.785 18.4459 268.536 19.1603C268.287 19.8747 268.146 20.7136 268.113 21.6769C268.109 21.8568 267.986 21.9749 267.744 22.0309C267.501 22.087 267.265 22.0743 267.035 21.9928ZM293.883 17.9894C293.398 18.1015 292.986 17.98 292.649 17.6249C292.23 17.2438 291.958 16.784 291.834 16.2453C291.775 15.9901 291.749 15.7496 291.757 15.5238C291.773 14.7438 291.839 14.0379 291.957 13.4061C292.074 12.7743 292.293 12.175 292.613 11.6083C292.6 11.3575 292.64 11.1392 292.733 10.9536C292.825 10.768 292.972 10.5251 293.174 10.2247C293.455 9.81628 293.627 9.48546 293.689 9.23228C293.717 9.09151 293.786 9.00085 293.897 8.9603C294.036 8.91316 294.166 8.83849 294.285 8.73629C294.404 8.6341 294.493 8.54641 294.552 8.47323C294.61 8.40003 294.657 8.34432 294.693 8.30607C294.894 8.06575 295.039 7.91278 295.129 7.84718C295.549 7.45158 296.141 7.1806 296.904 7.03422C297.207 6.97917 297.465 7.069 297.677 7.30373C297.889 7.53845 298.046 7.87553 298.147 8.31498C298.34 9.15134 298.301 10.0563 298.03 11.0298C297.51 12.8819 296.871 14.5149 296.115 15.9288C295.806 16.478 295.485 16.9291 295.153 17.282C294.82 17.6349 294.397 17.8707 293.883 17.9894ZM293.62 16.7512C294.265 16.2886 294.799 15.6839 295.22 14.9371C295.642 14.1902 295.981 13.3802 296.239 12.5071C296.496 11.634 296.797 10.4483 297.143 8.94992C297.149 8.8441 297.1 8.69854 296.997 8.51328C296.894 8.328 296.824 8.18739 296.787 8.09147L296.377 8.36542C296.168 8.50323 296.038 8.59289 295.988 8.63443L296.132 9.16107C296.158 9.27448 296.163 9.36283 296.148 9.42612C296.066 9.78843 295.913 10.0701 295.689 10.2712C295.663 10.292 295.629 10.3073 295.586 10.3172C295.501 10.337 295.415 10.3082 295.33 10.2309C295.244 10.1536 295.161 10.0719 295.081 9.98589L295.007 9.9582C294.692 10.2849 294.44 10.6303 294.254 10.9944C294.067 11.3585 293.867 11.8266 293.653 12.3986C293.645 12.4302 293.594 12.5688 293.501 12.8144C293.339 13.2849 293.24 13.7705 293.205 14.2712C293.171 14.772 293.175 15.3458 293.219 15.9926C293.217 16.1126 293.271 16.2494 293.382 16.403C293.492 16.5567 293.572 16.6727 293.62 16.7512ZM315.051 12.5425C314.954 12.5797 314.813 12.6198 314.628 12.6626C314.042 12.7978 313.525 12.7381 313.075 12.4836C312.625 12.2291 312.299 11.7966 312.098 11.1861C311.998 10.8808 311.931 10.6573 311.898 10.5155C311.751 9.87761 311.69 9.21993 311.714 8.54247C311.738 7.865 311.818 7.13726 311.954 6.35925C312.025 6.01442 312.034 5.7286 311.982 5.50179C311.946 5.34585 311.881 5.19651 311.788 5.05377C311.567 5.07486 311.371 5.13519 311.198 5.23475C311.026 5.33431 310.856 5.44805 310.69 5.57596C310.524 5.70388 310.396 5.80063 310.306 5.86623C309.582 6.37688 308.931 6.96023 308.353 7.61626C307.775 8.2723 307.108 9.11312 306.352 10.1387C305.701 11.0354 305.076 11.9413 304.475 12.8565C304.464 12.874 304.156 13.3332 303.552 14.2342C303.464 14.3739 303.407 14.4542 303.382 14.475C303.332 14.5165 303.234 14.5988 303.089 14.7217C302.945 14.8447 302.81 14.9431 302.684 15.017C302.558 15.0908 302.431 15.1426 302.302 15.1722C302.088 15.2217 301.882 15.2095 301.685 15.1356C301.339 15.0064 301.117 14.7292 301.019 14.3039C300.986 14.1621 300.962 13.9287 300.948 13.6037C300.954 13.4378 300.984 13.2406 301.037 13.012C301.089 12.7834 301.125 12.6145 301.145 12.5054L301.644 9.6803C301.66 9.55701 301.731 9.21218 301.856 8.64581C301.809 8.70152 301.725 8.79547 301.605 8.92766C301.485 9.05987 301.37 9.14624 301.259 9.18679L301.135 9.23773C300.921 9.28717 300.756 9.258 300.641 9.1502C300.554 9.0958 300.481 9.00811 300.423 8.88712C300.365 8.76613 300.35 8.67234 300.38 8.60575L300.572 8.06873C300.731 7.58411 300.898 7.18348 301.073 6.86684C301.248 6.55019 301.491 6.28144 301.801 6.06055C301.941 5.95342 302.071 5.86374 302.19 5.79155C302.383 5.71704 302.515 5.67155 302.587 5.65507C303.072 5.54298 303.367 5.71375 303.472 6.16737C303.524 6.39418 303.53 6.64671 303.489 6.92494C303.397 7.63307 303.181 8.84756 302.841 10.5684C302.806 10.7408 302.712 11.2477 302.561 12.089L302.338 13.3722L304.175 10.7756C304.197 10.7407 304.411 10.46 304.815 9.93349L305.231 9.38954C305.464 9.0968 305.638 8.87016 305.751 8.7096C306.44 7.84885 306.897 7.28791 307.122 7.02682C307.58 6.53298 307.938 6.16285 308.197 5.91642C308.456 5.66999 308.767 5.45266 309.129 5.26442C309.237 5.2097 309.363 5.10231 309.506 4.94225C309.65 4.78221 309.761 4.6781 309.84 4.62997L310.261 4.39855C310.843 4.05504 311.299 3.84537 311.627 3.76954C312.027 3.67724 312.366 3.71458 312.646 3.88155C312.925 4.04853 313.107 4.3163 313.192 4.68486C313.225 4.82662 313.242 4.93459 313.244 5.00877C313.264 5.42217 313.245 5.95673 313.186 6.61243C313.16 6.82737 313.136 7.1465 313.113 7.56979L313.091 8.15725C313.026 9.11295 313.056 9.86015 313.18 10.3988C313.373 11.2352 313.812 11.5743 314.498 11.416C314.712 11.3666 314.938 11.2696 315.175 11.1253C315.452 10.9568 315.745 10.7436 316.054 10.4856C316.363 10.2277 316.653 9.97026 316.925 9.71345L317.24 9.41675L318.313 8.49698C319.173 7.79084 319.796 7.22908 320.18 6.81172C320.994 5.90712 321.619 5.0312 322.055 4.18395C322.151 4.01253 322.271 3.81679 322.416 3.59673C322.561 3.37668 322.672 3.2055 322.749 3.08319C322.985 3.19298 323.121 3.32583 323.157 3.48176C323.183 3.59517 323.148 3.76758 323.051 3.99901C322.317 5.51218 321.503 6.77513 320.609 7.78787C319.926 8.5428 319.16 9.3317 318.313 10.1545L317.671 10.7954C316.88 11.6051 316.007 12.1874 315.051 12.5425Z" fill="#D136D1"/>
</svg>
